<svg width="80" height="80" viewBox="0 0 80 80" fill="none" xmlns="http://www.w3.org/2000/svg">
<g clip-path="url(#clip0_32_40)">
<path d="M38.13 49.36C38.13 49.36 38.16 49.39 38.18 49.41C38.25 49.49 38.33 49.55 38.41 49.62C38.46 49.66 38.51 49.71 38.56 49.74C38.65 49.8 38.75 49.86 38.85 49.91C38.9 49.94 38.94 49.97 38.99 49.99C39.11 50.04 39.24 50.08 39.37 50.11C39.41 50.11 39.44 50.14 39.48 50.14C39.65 50.18 39.82 50.2 40 50.2C40.18 50.2 40.35 50.18 40.52 50.14C40.56 50.14 40.59 50.12 40.63 50.11C40.76 50.08 40.89 50.04 41.01 49.99C41.06 49.97 41.11 49.94 41.15 49.91C41.25 49.86 41.35 49.8 41.44 49.74C41.49 49.7 41.54 49.66 41.59 49.62C41.67 49.55 41.75 49.49 41.82 49.41C41.84 49.39 41.86 49.38 41.87 49.36L50.7 39.42C51.62 38.39 51.52 36.81 50.49 35.89C49.46 34.97 47.88 35.07 46.96 36.1L42.5 41.12V25C42.5 23.62 41.38 22.5 40 22.5C38.62 22.5 37.5 23.62 37.5 25V41.12L33.04 36.1C32.12 35.07 30.54 34.97 29.51 35.89C28.48 36.81 28.38 38.39 29.3 39.42L38.13 49.36Z" fill="black"/>
<path d="M48.83 52.5H31.17C29.79 52.5 28.67 53.62 28.67 55C28.67 56.38 29.79 57.5 31.17 57.5H48.83C50.21 57.5 51.33 56.38 51.33 55C51.33 53.62 50.21 52.5 48.83 52.5Z" fill="black"/>
<path d="M76.87 17.66L62.07 2.86C62.07 2.86 62.05 2.86 62.04 2.84C60.31 1.09 57.9 0 55.24 0H17C7.63 0 0 7.63 0 17V63C0 72.37 7.63 80 17 80H63C72.37 80 80 72.37 80 63V24.74C80 21.97 78.81 19.48 76.93 17.73C76.9 17.71 76.89 17.68 76.87 17.66ZM76 63C76 70.17 70.17 76 63 76H17C9.83 76 4 70.17 4 63V17C4 9.83 9.83 4 17 4H55.24C58.32 4 60.82 6.5 60.82 9.58V10.08C60.82 15.09 64.9 19.16 69.9 19.16H70.42C73.49 19.16 76 21.67 76 24.74V63Z" fill="black"/>
</g>
<defs>
<clipPath id="clip0_32_40">
<rect width="80" height="80" fill="white"/>
</clipPath>
</defs>
</svg>
