<svg width="53" height="64" viewBox="0 0 53 64" fill="none" xmlns="http://www.w3.org/2000/svg">
<path d="M47.7096 30.277L29.0006 52.418V3C29.0006 1.343 27.6576 0 26.0006 0C24.3436 0 23.0006 1.343 23.0006 3V51.806L5.31665 30.308C4.26465 29.029 2.37365 28.843 1.09365 29.898C-0.185352 30.95 -0.369352 32.84 0.683648 34.121L23.8676 62.306C24.4326 62.993 25.2736 63.394 26.1646 63.4C26.1706 63.4 26.1776 63.4 26.1846 63.4C27.0676 63.4 27.9066 63.011 28.4756 62.337L52.2916 34.15C53.3616 32.884 53.2026 30.992 51.9376 29.922C50.6696 28.852 48.7766 29.013 47.7096 30.277Z" fill="black"/>
</svg>
